<mxfile host="Electron" agent="Mozilla/5.0 (Windows NT 10.0; Win64; x64) AppleWebKit/537.36 (KHTML, like Gecko) draw.io/24.7.8 Chrome/128.0.6613.36 Electron/32.0.1 Safari/537.36" version="24.7.8">
  <diagram name="Page-1" id="5CPuJgBsUaOjI_eojxd_">
    <mxGraphModel dx="874" dy="532" grid="1" gridSize="10" guides="1" tooltips="1" connect="1" arrows="1" fold="1" page="1" pageScale="1" pageWidth="850" pageHeight="1100" math="0" shadow="0">
      <root>
        <mxCell id="0" />
        <mxCell id="1" parent="0" />
        <mxCell id="MtOOMFjzf1gfUAbF_CY8-6" value="Patient_Table" style="swimlane;startSize=30;" vertex="1" parent="1">
          <mxGeometry x="320" y="180" width="200" height="270" as="geometry" />
        </mxCell>
        <mxCell id="MtOOMFjzf1gfUAbF_CY8-8" value="Fisrt_Name" style="text;html=1;align=center;verticalAlign=middle;resizable=0;points=[];autosize=1;strokeColor=none;fillColor=none;" vertex="1" parent="MtOOMFjzf1gfUAbF_CY8-6">
          <mxGeometry x="-5" y="54" width="90" height="30" as="geometry" />
        </mxCell>
        <mxCell id="MtOOMFjzf1gfUAbF_CY8-9" value="Last_Name" style="text;html=1;align=center;verticalAlign=middle;resizable=0;points=[];autosize=1;strokeColor=none;fillColor=none;" vertex="1" parent="MtOOMFjzf1gfUAbF_CY8-6">
          <mxGeometry y="84" width="80" height="30" as="geometry" />
        </mxCell>
        <mxCell id="MtOOMFjzf1gfUAbF_CY8-10" value="DoB" style="text;html=1;align=center;verticalAlign=middle;resizable=0;points=[];autosize=1;strokeColor=none;fillColor=none;" vertex="1" parent="MtOOMFjzf1gfUAbF_CY8-6">
          <mxGeometry x="-3" y="114" width="50" height="30" as="geometry" />
        </mxCell>
        <mxCell id="MtOOMFjzf1gfUAbF_CY8-15" value="Medical_History" style="text;html=1;align=center;verticalAlign=middle;resizable=0;points=[];autosize=1;strokeColor=none;fillColor=none;" vertex="1" parent="MtOOMFjzf1gfUAbF_CY8-6">
          <mxGeometry x="-5" y="240" width="110" height="30" as="geometry" />
        </mxCell>
        <mxCell id="MtOOMFjzf1gfUAbF_CY8-7" value="Patient_id" style="text;html=1;align=center;verticalAlign=middle;resizable=0;points=[];autosize=1;strokeColor=none;fillColor=none;" vertex="1" parent="1">
          <mxGeometry x="317" y="204" width="80" height="30" as="geometry" />
        </mxCell>
        <mxCell id="MtOOMFjzf1gfUAbF_CY8-12" value="Gender" style="text;html=1;align=center;verticalAlign=middle;resizable=0;points=[];autosize=1;strokeColor=none;fillColor=none;" vertex="1" parent="1">
          <mxGeometry x="320" y="328" width="60" height="30" as="geometry" />
        </mxCell>
        <mxCell id="MtOOMFjzf1gfUAbF_CY8-13" value="Contact_Number" style="text;html=1;align=center;verticalAlign=middle;resizable=0;points=[];autosize=1;strokeColor=none;fillColor=none;" vertex="1" parent="1">
          <mxGeometry x="320" y="358" width="110" height="30" as="geometry" />
        </mxCell>
        <mxCell id="MtOOMFjzf1gfUAbF_CY8-14" value="Address" style="text;html=1;align=center;verticalAlign=middle;resizable=0;points=[];autosize=1;strokeColor=none;fillColor=none;" vertex="1" parent="1">
          <mxGeometry x="315" y="388" width="70" height="30" as="geometry" />
        </mxCell>
      </root>
    </mxGraphModel>
  </diagram>
</mxfile>
